<svg width="217" height="57" viewBox="0 0 217 57" fill="none" xmlns="http://www.w3.org/2000/svg">
<g filter="url(#filter0_d_104_6)">
<path d="M5 34.5001V10.0001H151.5L166.5 1L212 5L177 11.5L176.5 20.5L207 26.5L176.5 30.5001V40.0001L210 45.0001L164.5 47.5001L151.5 34.5001H5Z" fill="white"/>
<path d="M5 34.5001V10.0001H151.5L166.5 1L212 5L177 11.5L176.5 20.5L207 26.5L176.5 30.5001V40.0001L210 45.0001L164.5 47.5001L151.5 34.5001H5Z" stroke="black"/>
</g>
<path d="M26.7224 19.256L23.7774 19.028C23.7521 19.8387 23.4924 21.7133 22.9984 24.652C22.5171 27.578 22.2764 29.6427 22.2764 30.846C22.2764 32.0367 22.5234 32.9043 23.0174 33.449C22.6247 33.905 22.1814 34.133 21.6874 34.133C20.7121 34.133 20.2244 33.297 20.2244 31.625C20.2244 30.9283 20.4524 29.0917 20.9084 26.115C21.3771 23.1257 21.6114 21.061 21.6114 19.921C21.6114 19.5283 21.6051 19.2243 21.5924 19.009C19.8317 19.0217 18.3941 19.2243 17.2794 19.617C17.3301 18.7937 17.5011 18.2363 17.7924 17.945C18.0964 17.641 18.5461 17.489 19.1414 17.489L26.2094 17.565C27.3874 17.565 28.1727 17.4447 28.5654 17.204C28.5147 18.0273 28.3437 18.5783 28.0524 18.857C27.7737 19.123 27.3304 19.256 26.7224 19.256ZM29.4165 34.266C28.5552 34.266 27.8712 33.8417 27.3645 32.993C26.8705 32.1443 26.6235 30.979 26.6235 29.497C26.6235 27.1157 27.1555 25.108 28.2195 23.474C29.2962 21.8273 30.6199 21.004 32.1905 21.004C33.2672 21.004 34.1602 21.4283 34.8695 22.277C34.9709 21.8843 35.0975 21.6057 35.2495 21.441C35.4142 21.2763 35.6612 21.194 35.9905 21.194C36.3325 21.194 36.6492 21.3587 36.9405 21.688C36.7125 22.296 36.5162 23.3157 36.3515 24.747C36.1869 26.1783 36.1045 27.5147 36.1045 28.756C36.1045 29.9847 36.1679 30.941 36.2945 31.625C36.4339 32.2963 36.6619 32.898 36.9785 33.43C36.6112 33.8987 36.1805 34.133 35.6865 34.133C34.5972 34.133 34.0525 32.7967 34.0525 30.124C34.0525 29.6933 34.1032 28.9397 34.2045 27.863C33.5459 29.6997 32.7605 31.226 31.8485 32.442C30.9492 33.658 30.1385 34.266 29.4165 34.266ZM32.2665 22.315C31.1899 22.315 30.3095 22.942 29.6255 24.196C28.9542 25.45 28.6185 27.0587 28.6185 29.022C28.6185 30.0227 28.7452 30.8143 28.9985 31.397C29.2645 31.967 29.6192 32.252 30.0625 32.252C30.5185 32.252 31.0885 31.758 31.7725 30.77C32.4692 29.782 33.1025 28.5787 33.6725 27.16C34.2425 25.7287 34.5909 24.443 34.7175 23.303C33.8562 22.6443 33.0392 22.315 32.2665 22.315ZM43.7525 22.334C43.2205 22.334 42.7962 22.4733 42.4795 22.752C42.1628 23.018 42.0045 23.3853 42.0045 23.854C42.0045 24.3227 42.1565 24.7343 42.4605 25.089C42.7772 25.4437 43.3092 25.925 44.0565 26.533C44.8038 27.141 45.2662 27.521 45.4435 27.673C46.4568 28.509 46.9635 29.4843 46.9635 30.599C46.9635 31.7137 46.5962 32.6003 45.8615 33.259C45.1268 33.9177 44.0818 34.247 42.7265 34.247C41.7132 34.247 40.8645 34.057 40.1805 33.677C39.5092 33.2843 39.1735 32.7207 39.1735 31.986C39.1735 31.4667 39.4775 30.903 40.0855 30.295C40.3008 31.207 40.6872 31.891 41.2445 32.347C41.8145 32.7903 42.4035 33.012 43.0115 33.012C43.6322 33.012 44.1388 32.86 44.5315 32.556C44.9368 32.252 45.1395 31.853 45.1395 31.359C45.1395 30.9283 45.0572 30.5927 44.8925 30.352C44.7405 30.0987 44.6202 29.915 44.5315 29.801C44.4428 29.6743 44.2718 29.5033 44.0185 29.288C43.7652 29.06 43.5688 28.8953 43.4295 28.794C43.3028 28.68 43.0495 28.4773 42.6695 28.186C42.2895 27.882 42.0045 27.654 41.8145 27.502C40.7632 26.6787 40.2375 25.6907 40.2375 24.538C40.2375 23.3853 40.6302 22.5113 41.4155 21.916C42.2008 21.308 43.2775 21.004 44.6455 21.004C46.3555 21.004 47.2105 21.593 47.2105 22.771C47.2105 23.3283 46.9192 23.835 46.3365 24.291C45.8045 22.9863 44.9432 22.334 43.7525 22.334ZM51.5924 22.03L51.6304 21.156C51.6304 19.978 51.4974 19.123 51.2314 18.591C51.358 18.477 51.548 18.3757 51.8014 18.287C52.0674 18.1983 52.3017 18.154 52.5044 18.154C52.9477 18.154 53.277 18.306 53.4924 18.61C53.7077 18.914 53.8154 19.427 53.8154 20.149C53.8154 20.4277 53.7394 21.0547 53.5874 22.03C55.1454 22.0047 56.1777 21.821 56.6844 21.479C56.583 22.3023 56.298 22.8533 55.8294 23.132C55.3607 23.4107 54.5247 23.5627 53.3214 23.588C52.7387 27.1727 52.4474 29.8643 52.4474 31.663C52.4474 32.081 52.536 32.3913 52.7134 32.594C52.9034 32.7967 53.144 32.898 53.4354 32.898C53.7394 32.898 54.0624 32.7713 54.4044 32.518C54.7464 32.252 55.0187 31.9227 55.2214 31.53C55.4494 31.8087 55.5634 32.1063 55.5634 32.423C55.5634 32.917 55.3164 33.354 54.8224 33.734C54.341 34.1013 53.714 34.285 52.9414 34.285C52.1687 34.285 51.5544 34.0823 51.0984 33.677C50.655 33.259 50.4334 32.6067 50.4334 31.72C50.4334 30.922 50.579 29.5223 50.8704 27.521C51.1617 25.507 51.3454 24.2023 51.4214 23.607C50.294 23.607 49.458 23.778 48.9134 24.12C48.9134 23.5373 48.9704 23.1257 49.0844 22.885C49.1984 22.6443 49.3504 22.4733 49.5404 22.372C50.009 22.144 50.693 22.03 51.5924 22.03ZM60.3168 28.661C59.9748 28.661 59.6328 28.642 59.2908 28.604C59.3034 30.01 59.5631 31.0803 60.0698 31.815C60.5891 32.5497 61.3111 32.917 62.2358 32.917C63.5404 32.917 64.4904 32.2773 65.0858 30.998C65.3898 31.2893 65.5418 31.644 65.5418 32.062C65.5418 32.7713 65.1428 33.3287 64.3448 33.734C63.5594 34.1267 62.7361 34.323 61.8748 34.323C60.3421 34.323 59.1831 33.8353 58.3978 32.86C57.6251 31.8847 57.2388 30.6243 57.2388 29.079C57.2388 28.1543 57.3844 27.2233 57.6758 26.286C57.9671 25.336 58.3661 24.4683 58.8728 23.683C59.3794 22.885 60.0318 22.239 60.8298 21.745C61.6278 21.251 62.5018 21.004 63.4518 21.004C64.4018 21.004 65.1238 21.2447 65.6178 21.726C66.1244 22.2073 66.3778 22.828 66.3778 23.588C66.3778 24.8167 65.8078 25.9693 64.6678 27.046C63.5404 28.1227 62.0901 28.661 60.3168 28.661ZM64.3828 24.215C64.3828 23.6957 64.2181 23.2713 63.8888 22.942C63.5721 22.6 63.1288 22.429 62.5588 22.429C62.0014 22.429 61.5138 22.5873 61.0958 22.904C60.6904 23.2207 60.3674 23.645 60.1268 24.177C59.6961 25.165 59.4301 26.2353 59.3288 27.388C59.6328 27.426 59.9178 27.445 60.1838 27.445C61.4758 27.445 62.4954 27.1157 63.2428 26.457C64.0028 25.7857 64.3828 25.0383 64.3828 24.215ZM72.4199 19.085C72.4199 19.7817 72.1729 21.5993 71.6789 24.538C71.1976 27.464 70.9569 29.554 70.9569 30.808C70.9569 32.0493 71.1976 32.9297 71.6789 33.449C71.2863 33.905 70.8493 34.133 70.3679 34.133C69.3799 34.133 68.8859 33.297 68.8859 31.625C68.8859 30.9283 69.1076 29.1233 69.5509 26.21C70.0069 23.284 70.2349 21.2447 70.2349 20.092C70.2349 18.9267 70.1019 18.078 69.8359 17.546C70.1779 17.2547 70.5833 17.109 71.0519 17.109C71.5333 17.109 71.8816 17.2673 72.0969 17.584C72.3123 17.888 72.4199 18.3883 72.4199 19.085ZM83.5925 19.256L80.6475 19.028C80.6222 19.8387 80.3625 21.7133 79.8685 24.652C79.3872 27.578 79.1465 29.6427 79.1465 30.846C79.1465 32.0367 79.3935 32.9043 79.8875 33.449C79.4949 33.905 79.0515 34.133 78.5575 34.133C77.5822 34.133 77.0945 33.297 77.0945 31.625C77.0945 30.9283 77.3225 29.0917 77.7785 26.115C78.2472 23.1257 78.4815 21.061 78.4815 19.921C78.4815 19.5283 78.4752 19.2243 78.4625 19.009C76.7019 19.0217 75.2642 19.2243 74.1495 19.617C74.2002 18.7937 74.3712 18.2363 74.6625 17.945C74.9665 17.641 75.4162 17.489 76.0115 17.489L83.0795 17.565C84.2575 17.565 85.0429 17.4447 85.4355 17.204C85.3849 18.0273 85.2139 18.5783 84.9225 18.857C84.6439 19.123 84.2005 19.256 83.5925 19.256Z" fill="#4A2471"/>
<path d="M26.7224 19.256L23.7774 19.028C23.7521 19.8387 23.4924 21.7133 22.9984 24.652C22.5171 27.578 22.2764 29.6427 22.2764 30.846C22.2764 32.0367 22.5234 32.9043 23.0174 33.449C22.6247 33.905 22.1814 34.133 21.6874 34.133C20.7121 34.133 20.2244 33.297 20.2244 31.625C20.2244 30.9283 20.4524 29.0917 20.9084 26.115C21.3771 23.1257 21.6114 21.061 21.6114 19.921C21.6114 19.5283 21.6051 19.2243 21.5924 19.009C19.8317 19.0217 18.3941 19.2243 17.2794 19.617C17.3301 18.7937 17.5011 18.2363 17.7924 17.945C18.0964 17.641 18.5461 17.489 19.1414 17.489L26.2094 17.565C27.3874 17.565 28.1727 17.4447 28.5654 17.204C28.5147 18.0273 28.3437 18.5783 28.0524 18.857C27.7737 19.123 27.3304 19.256 26.7224 19.256ZM29.4165 34.266C28.5552 34.266 27.8712 33.8417 27.3645 32.993C26.8705 32.1443 26.6235 30.979 26.6235 29.497C26.6235 27.1157 27.1555 25.108 28.2195 23.474C29.2962 21.8273 30.6199 21.004 32.1905 21.004C33.2672 21.004 34.1602 21.4283 34.8695 22.277C34.9709 21.8843 35.0975 21.6057 35.2495 21.441C35.4142 21.2763 35.6612 21.194 35.9905 21.194C36.3325 21.194 36.6492 21.3587 36.9405 21.688C36.7125 22.296 36.5162 23.3157 36.3515 24.747C36.1869 26.1783 36.1045 27.5147 36.1045 28.756C36.1045 29.9847 36.1679 30.941 36.2945 31.625C36.4339 32.2963 36.6619 32.898 36.9785 33.43C36.6112 33.8987 36.1805 34.133 35.6865 34.133C34.5972 34.133 34.0525 32.7967 34.0525 30.124C34.0525 29.6933 34.1032 28.9397 34.2045 27.863C33.5459 29.6997 32.7605 31.226 31.8485 32.442C30.9492 33.658 30.1385 34.266 29.4165 34.266ZM32.2665 22.315C31.1899 22.315 30.3095 22.942 29.6255 24.196C28.9542 25.45 28.6185 27.0587 28.6185 29.022C28.6185 30.0227 28.7452 30.8143 28.9985 31.397C29.2645 31.967 29.6192 32.252 30.0625 32.252C30.5185 32.252 31.0885 31.758 31.7725 30.77C32.4692 29.782 33.1025 28.5787 33.6725 27.16C34.2425 25.7287 34.5909 24.443 34.7175 23.303C33.8562 22.6443 33.0392 22.315 32.2665 22.315ZM43.7525 22.334C43.2205 22.334 42.7962 22.4733 42.4795 22.752C42.1628 23.018 42.0045 23.3853 42.0045 23.854C42.0045 24.3227 42.1565 24.7343 42.4605 25.089C42.7772 25.4437 43.3092 25.925 44.0565 26.533C44.8038 27.141 45.2662 27.521 45.4435 27.673C46.4568 28.509 46.9635 29.4843 46.9635 30.599C46.9635 31.7137 46.5962 32.6003 45.8615 33.259C45.1268 33.9177 44.0818 34.247 42.7265 34.247C41.7132 34.247 40.8645 34.057 40.1805 33.677C39.5092 33.2843 39.1735 32.7207 39.1735 31.986C39.1735 31.4667 39.4775 30.903 40.0855 30.295C40.3008 31.207 40.6872 31.891 41.2445 32.347C41.8145 32.7903 42.4035 33.012 43.0115 33.012C43.6322 33.012 44.1388 32.86 44.5315 32.556C44.9368 32.252 45.1395 31.853 45.1395 31.359C45.1395 30.9283 45.0572 30.5927 44.8925 30.352C44.7405 30.0987 44.6202 29.915 44.5315 29.801C44.4428 29.6743 44.2718 29.5033 44.0185 29.288C43.7652 29.06 43.5688 28.8953 43.4295 28.794C43.3028 28.68 43.0495 28.4773 42.6695 28.186C42.2895 27.882 42.0045 27.654 41.8145 27.502C40.7632 26.6787 40.2375 25.6907 40.2375 24.538C40.2375 23.3853 40.6302 22.5113 41.4155 21.916C42.2008 21.308 43.2775 21.004 44.6455 21.004C46.3555 21.004 47.2105 21.593 47.2105 22.771C47.2105 23.3283 46.9192 23.835 46.3365 24.291C45.8045 22.9863 44.9432 22.334 43.7525 22.334ZM51.5924 22.03L51.6304 21.156C51.6304 19.978 51.4974 19.123 51.2314 18.591C51.358 18.477 51.548 18.3757 51.8014 18.287C52.0674 18.1983 52.3017 18.154 52.5044 18.154C52.9477 18.154 53.277 18.306 53.4924 18.61C53.7077 18.914 53.8154 19.427 53.8154 20.149C53.8154 20.4277 53.7394 21.0547 53.5874 22.03C55.1454 22.0047 56.1777 21.821 56.6844 21.479C56.583 22.3023 56.298 22.8533 55.8294 23.132C55.3607 23.4107 54.5247 23.5627 53.3214 23.588C52.7387 27.1727 52.4474 29.8643 52.4474 31.663C52.4474 32.081 52.536 32.3913 52.7134 32.594C52.9034 32.7967 53.144 32.898 53.4354 32.898C53.7394 32.898 54.0624 32.7713 54.4044 32.518C54.7464 32.252 55.0187 31.9227 55.2214 31.53C55.4494 31.8087 55.5634 32.1063 55.5634 32.423C55.5634 32.917 55.3164 33.354 54.8224 33.734C54.341 34.1013 53.714 34.285 52.9414 34.285C52.1687 34.285 51.5544 34.0823 51.0984 33.677C50.655 33.259 50.4334 32.6067 50.4334 31.72C50.4334 30.922 50.579 29.5223 50.8704 27.521C51.1617 25.507 51.3454 24.2023 51.4214 23.607C50.294 23.607 49.458 23.778 48.9134 24.12C48.9134 23.5373 48.9704 23.1257 49.0844 22.885C49.1984 22.6443 49.3504 22.4733 49.5404 22.372C50.009 22.144 50.693 22.03 51.5924 22.03ZM60.3168 28.661C59.9748 28.661 59.6328 28.642 59.2908 28.604C59.3034 30.01 59.5631 31.0803 60.0698 31.815C60.5891 32.5497 61.3111 32.917 62.2358 32.917C63.5404 32.917 64.4904 32.2773 65.0858 30.998C65.3898 31.2893 65.5418 31.644 65.5418 32.062C65.5418 32.7713 65.1428 33.3287 64.3448 33.734C63.5594 34.1267 62.7361 34.323 61.8748 34.323C60.3421 34.323 59.1831 33.8353 58.3978 32.86C57.6251 31.8847 57.2388 30.6243 57.2388 29.079C57.2388 28.1543 57.3844 27.2233 57.6758 26.286C57.9671 25.336 58.3661 24.4683 58.8728 23.683C59.3794 22.885 60.0318 22.239 60.8298 21.745C61.6278 21.251 62.5018 21.004 63.4518 21.004C64.4018 21.004 65.1238 21.2447 65.6178 21.726C66.1244 22.2073 66.3778 22.828 66.3778 23.588C66.3778 24.8167 65.8078 25.9693 64.6678 27.046C63.5404 28.1227 62.0901 28.661 60.3168 28.661ZM64.3828 24.215C64.3828 23.6957 64.2181 23.2713 63.8888 22.942C63.5721 22.6 63.1288 22.429 62.5588 22.429C62.0014 22.429 61.5138 22.5873 61.0958 22.904C60.6904 23.2207 60.3674 23.645 60.1268 24.177C59.6961 25.165 59.4301 26.2353 59.3288 27.388C59.6328 27.426 59.9178 27.445 60.1838 27.445C61.4758 27.445 62.4954 27.1157 63.2428 26.457C64.0028 25.7857 64.3828 25.0383 64.3828 24.215ZM72.4199 19.085C72.4199 19.7817 72.1729 21.5993 71.6789 24.538C71.1976 27.464 70.9569 29.554 70.9569 30.808C70.9569 32.0493 71.1976 32.9297 71.6789 33.449C71.2863 33.905 70.8493 34.133 70.3679 34.133C69.3799 34.133 68.8859 33.297 68.8859 31.625C68.8859 30.9283 69.1076 29.1233 69.5509 26.21C70.0069 23.284 70.2349 21.2447 70.2349 20.092C70.2349 18.9267 70.1019 18.078 69.8359 17.546C70.1779 17.2547 70.5833 17.109 71.0519 17.109C71.5333 17.109 71.8816 17.2673 72.0969 17.584C72.3123 17.888 72.4199 18.3883 72.4199 19.085ZM83.5925 19.256L80.6475 19.028C80.6222 19.8387 80.3625 21.7133 79.8685 24.652C79.3872 27.578 79.1465 29.6427 79.1465 30.846C79.1465 32.0367 79.3935 32.9043 79.8875 33.449C79.4949 33.905 79.0515 34.133 78.5575 34.133C77.5822 34.133 77.0945 33.297 77.0945 31.625C77.0945 30.9283 77.3225 29.0917 77.7785 26.115C78.2472 23.1257 78.4815 21.061 78.4815 19.921C78.4815 19.5283 78.4752 19.2243 78.4625 19.009C76.7019 19.0217 75.2642 19.2243 74.1495 19.617C74.2002 18.7937 74.3712 18.2363 74.6625 17.945C74.9665 17.641 75.4162 17.489 76.0115 17.489L83.0795 17.565C84.2575 17.565 85.0429 17.4447 85.4355 17.204C85.3849 18.0273 85.2139 18.5783 84.9225 18.857C84.6439 19.123 84.2005 19.256 83.5925 19.256Z" fill="white" fill-opacity="0.2"/>
<defs>
<filter id="filter0_d_104_6" x="0.5" y="0.487671" width="215.591" height="55.5239" filterUnits="userSpaceOnUse" color-interpolation-filters="sRGB">
<feFlood flood-opacity="0" result="BackgroundImageFix"/>
<feColorMatrix in="SourceAlpha" type="matrix" values="0 0 0 0 0 0 0 0 0 0 0 0 0 0 0 0 0 0 127 0" result="hardAlpha"/>
<feOffset dy="4"/>
<feGaussianBlur stdDeviation="2"/>
<feComposite in2="hardAlpha" operator="out"/>
<feColorMatrix type="matrix" values="0 0 0 0 0 0 0 0 0 0 0 0 0 0 0 0 0 0 0.25 0"/>
<feBlend mode="normal" in2="BackgroundImageFix" result="effect1_dropShadow_104_6"/>
<feBlend mode="normal" in="SourceGraphic" in2="effect1_dropShadow_104_6" result="shape"/>
</filter>
</defs>
</svg>
